<svg xmlns="http://www.w3.org/2000/svg" style="display:none;">
	<defs>
		<symbol id='ph_arrow-down-left-light' viewBox='0 0 24 24'>
			<path d="M18.3937 6.39371L7.35938 17.4375H15.75C15.8992 17.4375 16.0423 17.4967 16.1477 17.6022C16.2532 17.7077 16.3125 17.8508 16.3125 18C16.3125 18.1491 16.2532 18.2922 16.1477 18.3977C16.0423 18.5032 15.8992 18.5625 15.75 18.5625H6C5.85082 18.5625 5.70774 18.5032 5.60225 18.3977C5.49676 18.2922 5.4375 18.1491 5.4375 18V8.24996C5.4375 8.10078 5.49676 7.9577 5.60225 7.85221C5.70774 7.74673 5.85082 7.68746 6 7.68746C6.14918 7.68746 6.29226 7.74673 6.39775 7.85221C6.50324 7.9577 6.5625 8.10078 6.5625 8.24996V16.6406L17.6063 5.60621C17.7107 5.50178 17.8523 5.44312 18 5.44312C18.1477 5.44312 18.2893 5.50178 18.3937 5.60621C18.4982 5.71064 18.5568 5.85228 18.5568 5.99996C18.5568 6.14765 18.4982 6.28928 18.3937 6.39371Z"  fill='currentColor'   />
		</symbol>
		<symbol id='ph_arrow-down-light' viewBox='0 0 24 24'>
			<path d="M19.1438 13.8937L12.3938 20.6437C12.343 20.6971 12.2819 20.7395 12.2142 20.7685C12.1465 20.7975 12.0737 20.8125 12 20.8125C11.9264 20.8125 11.8535 20.7975 11.7858 20.7685C11.7181 20.7395 11.6571 20.6971 11.6063 20.6437L4.85627 13.8937C4.75184 13.7893 4.69318 13.6477 4.69318 13.5C4.69318 13.3523 4.75184 13.2107 4.85627 13.1063C4.9607 13.0018 5.10234 12.9432 5.25002 12.9432C5.39771 12.9432 5.53934 13.0018 5.64377 13.1063L11.4375 18.8906V3.75C11.4375 3.60082 11.4968 3.45774 11.6023 3.35225C11.7078 3.24676 11.8508 3.1875 12 3.1875C12.1492 3.1875 12.2923 3.24676 12.3978 3.35225C12.5033 3.45774 12.5625 3.60082 12.5625 3.75V18.8906L18.3563 13.1063C18.4607 13.0018 18.6023 12.9432 18.75 12.9432C18.8977 12.9432 19.0393 13.0018 19.1438 13.1063C19.2482 13.2107 19.3069 13.3523 19.3069 13.5C19.3069 13.6477 19.2482 13.7893 19.1438 13.8937Z"  fill='currentColor'   />
		</symbol>
		<symbol id='ph_arrow-down-right-light' viewBox='0 0 24 24'>
			<path d="M18.5625 8.24996V18C18.5625 18.1491 18.5033 18.2922 18.3978 18.3977C18.2923 18.5032 18.1492 18.5625 18 18.5625H8.25002C8.10084 18.5625 7.95776 18.5032 7.85228 18.3977C7.74679 18.2922 7.68752 18.1491 7.68752 18C7.68752 17.8508 7.74679 17.7077 7.85228 17.6022C7.95776 17.4967 8.10084 17.4375 8.25002 17.4375H16.6406L5.60627 6.39371C5.50184 6.28928 5.44318 6.14765 5.44318 5.99996C5.44318 5.85228 5.50184 5.71064 5.60627 5.60621C5.7107 5.50178 5.85234 5.44312 6.00002 5.44312C6.14771 5.44312 6.28934 5.50178 6.39377 5.60621L17.4375 16.6406V8.24996C17.4375 8.10078 17.4968 7.9577 17.6023 7.85221C17.7078 7.74673 17.8508 7.68746 18 7.68746C18.1492 7.68746 18.2923 7.74673 18.3978 7.85221C18.5033 7.9577 18.5625 8.10078 18.5625 8.24996Z"  fill='currentColor'   />
		</symbol>
		<symbol id='ph_arrow-left-light' viewBox='0 0 24 24'>
			<path d="M20.8125 12C20.8125 12.1491 20.7532 12.2922 20.6477 12.3977C20.5423 12.5032 20.3992 12.5625 20.25 12.5625H5.10938L10.8937 18.3562C10.9455 18.4079 10.9865 18.4693 11.0145 18.5369C11.0424 18.6044 11.0568 18.6768 11.0568 18.75C11.0568 18.8231 11.0424 18.8955 11.0145 18.9631C10.9865 19.0306 10.9455 19.092 10.8937 19.1437C10.842 19.1954 10.7807 19.2364 10.7131 19.2644C10.6455 19.2924 10.5731 19.3068 10.5 19.3068C10.4269 19.3068 10.3545 19.2924 10.2869 19.2644C10.2193 19.2364 10.158 19.1954 10.1063 19.1437L3.35625 12.3937C3.30293 12.3429 3.26047 12.2818 3.23146 12.2142C3.20246 12.1465 3.1875 12.0736 3.1875 12C3.1875 11.9263 3.20246 11.8535 3.23146 11.7858C3.26047 11.7181 3.30293 11.657 3.35625 11.6062L10.1063 4.85621C10.2107 4.75178 10.3523 4.69312 10.5 4.69312C10.6477 4.69312 10.7893 4.75178 10.8937 4.85621C10.9982 4.96064 11.0568 5.10228 11.0568 5.24996C11.0568 5.39765 10.9982 5.53928 10.8937 5.64371L5.10938 11.4375H20.25C20.3992 11.4375 20.5423 11.4967 20.6477 11.6022C20.7532 11.7077 20.8125 11.8508 20.8125 12Z"  fill='currentColor'   />
		</symbol>
		<symbol id='ph_arrow-right-light' viewBox='0 0 24 24'>
			<path d="M20.6437 12.3937L13.8937 19.1437C13.842 19.1954 13.7807 19.2364 13.7131 19.2644C13.6455 19.2924 13.5731 19.3068 13.5 19.3068C13.4269 19.3068 13.3545 19.2924 13.2869 19.2644C13.2193 19.2364 13.158 19.1954 13.1063 19.1437C13.0545 19.092 13.0135 19.0306 12.9855 18.9631C12.9576 18.8955 12.9432 18.8231 12.9432 18.75C12.9432 18.6768 12.9576 18.6044 12.9855 18.5369C13.0135 18.4693 13.0545 18.4079 13.1063 18.3562L18.8906 12.5625H3.75C3.60082 12.5625 3.45774 12.5032 3.35225 12.3977C3.24676 12.2922 3.1875 12.1491 3.1875 12C3.1875 11.8508 3.24676 11.7077 3.35225 11.6022C3.45774 11.4967 3.60082 11.4375 3.75 11.4375H18.8906L13.1063 5.64371C13.0018 5.53928 12.9432 5.39765 12.9432 5.24996C12.9432 5.10228 13.0018 4.96064 13.1063 4.85621C13.2107 4.75178 13.3523 4.69312 13.5 4.69312C13.6477 4.69312 13.7893 4.75178 13.8937 4.85621L20.6437 11.6062C20.6971 11.657 20.7395 11.7181 20.7685 11.7858C20.7975 11.8535 20.8125 11.9263 20.8125 12C20.8125 12.0736 20.7975 12.1465 20.7685 12.2142C20.7395 12.2818 20.6971 12.3429 20.6437 12.3937Z"  fill='currentColor'   />
		</symbol>
		<symbol id='ph_arrow-up-left-light' viewBox='0 0 24 24'>
			<path d="M18.3937 18.3937C18.343 18.4471 18.2819 18.4895 18.2142 18.5185C18.1465 18.5475 18.0736 18.5625 18 18.5625C17.9264 18.5625 17.8535 18.5475 17.7858 18.5185C17.7181 18.4895 17.657 18.4471 17.6063 18.3937L6.5625 7.35938V15.75C6.5625 15.8992 6.50324 16.0423 6.39775 16.1477C6.29226 16.2532 6.14918 16.3125 6 16.3125C5.85082 16.3125 5.70774 16.2532 5.60225 16.1477C5.49676 16.0423 5.4375 15.8992 5.4375 15.75V6C5.4375 5.85082 5.49676 5.70774 5.60225 5.60225C5.70774 5.49676 5.85082 5.4375 6 5.4375H15.75C15.8992 5.4375 16.0423 5.49676 16.1477 5.60225C16.2532 5.70774 16.3125 5.85082 16.3125 6C16.3125 6.14918 16.2532 6.29226 16.1477 6.39775C16.0423 6.50324 15.8992 6.5625 15.75 6.5625H7.35938L18.3937 17.6063C18.4471 17.657 18.4895 17.7181 18.5185 17.7858C18.5475 17.8535 18.5625 17.9264 18.5625 18C18.5625 18.0736 18.5475 18.1465 18.5185 18.2142C18.4895 18.2819 18.4471 18.343 18.3937 18.3937Z"  fill='currentColor'   />
		</symbol>
		<symbol id='ph_arrow-up-light' viewBox='0 0 24 24'>
			<path d="M19.1438 10.8937C19.093 10.9471 19.0319 10.9895 18.9642 11.0185C18.8965 11.0475 18.8237 11.0625 18.75 11.0625C18.6764 11.0625 18.6035 11.0475 18.5358 11.0185C18.4681 10.9895 18.4071 10.9471 18.3563 10.8937L12.5625 5.10938V20.25C12.5625 20.3992 12.5033 20.5423 12.3978 20.6477C12.2923 20.7532 12.1492 20.8125 12 20.8125C11.8508 20.8125 11.7078 20.7532 11.6023 20.6477C11.4968 20.5423 11.4375 20.3992 11.4375 20.25V5.10938L5.64377 10.8937C5.53934 10.9982 5.39771 11.0568 5.25002 11.0568C5.10234 11.0568 4.9607 10.9982 4.85627 10.8937C4.75184 10.7893 4.69318 10.6477 4.69318 10.5C4.69318 10.3523 4.75184 10.2107 4.85627 10.1063L11.6063 3.35625C11.6571 3.30293 11.7181 3.26047 11.7858 3.23146C11.8535 3.20246 11.9264 3.1875 12 3.1875C12.0737 3.1875 12.1465 3.20246 12.2142 3.23146C12.2819 3.26047 12.343 3.30293 12.3938 3.35625L19.1438 10.1063C19.1971 10.157 19.2395 10.2181 19.2686 10.2858C19.2976 10.3535 19.3125 10.4264 19.3125 10.5C19.3125 10.5736 19.2976 10.6465 19.2686 10.7142C19.2395 10.7819 19.1971 10.843 19.1438 10.8937Z"  fill='currentColor'   />
		</symbol>
		<symbol id='ph_arrow-up-right-light' viewBox='0 0 24 24'>
			<path d="M18.5625 6V15.75C18.5625 15.8992 18.5032 16.0423 18.3977 16.1477C18.2923 16.2532 18.1492 16.3125 18 16.3125C17.8508 16.3125 17.7077 16.2532 17.6022 16.1477C17.4968 16.0423 17.4375 15.8992 17.4375 15.75V7.35938L6.39374 18.3937C6.28931 18.4982 6.14768 18.5568 5.99999 18.5568C5.85231 18.5568 5.71067 18.4982 5.60624 18.3937C5.50181 18.2893 5.44315 18.1477 5.44315 18C5.44315 17.8523 5.50181 17.7107 5.60624 17.6063L16.6406 6.5625H8.24999C8.10081 6.5625 7.95773 6.50324 7.85225 6.39775C7.74676 6.29226 7.68749 6.14918 7.68749 6C7.68749 5.85082 7.74676 5.70774 7.85225 5.60225C7.95773 5.49676 8.10081 5.4375 8.24999 5.4375H18C18.1492 5.4375 18.2923 5.49676 18.3977 5.60225C18.5032 5.70774 18.5625 5.85082 18.5625 6Z"  fill='currentColor'   />
		</symbol>
		<symbol id='ph_behance-logo-light' viewBox='0 0 24 24'>
			<path d="M15.1875 7.5C15.1875 7.35082 15.2468 7.20774 15.3523 7.10225C15.4577 6.99676 15.6008 6.9375 15.75 6.9375H21.75C21.8992 6.9375 22.0423 6.99676 22.1477 7.10225C22.2532 7.20774 22.3125 7.35082 22.3125 7.5C22.3125 7.64918 22.2532 7.79226 22.1477 7.89775C22.0423 8.00324 21.8992 8.0625 21.75 8.0625H15.75C15.6008 8.0625 15.4577 8.00324 15.3523 7.89775C15.2468 7.79226 15.1875 7.64918 15.1875 7.5ZM23.0625 14.25C23.0625 14.3992 23.0032 14.5423 22.8977 14.6477C22.7923 14.7532 22.6492 14.8125 22.5 14.8125H15.6094C15.7432 15.5483 16.1307 16.2139 16.7045 16.6935C17.2783 17.1731 18.0021 17.4364 18.75 17.4375C19.1687 17.4401 19.5837 17.3585 19.9703 17.1974C20.3568 17.0364 20.707 16.7992 21 16.5C21.1067 16.3963 21.2497 16.3384 21.3984 16.3384C21.5472 16.3384 21.6901 16.3963 21.7969 16.5C21.8505 16.5516 21.8931 16.6135 21.9222 16.6819C21.9513 16.7504 21.9663 16.824 21.9663 16.8984C21.9663 16.9728 21.9513 17.0465 21.9222 17.1149C21.8931 17.1834 21.8505 17.2453 21.7969 17.2969C21.0908 18.0018 20.162 18.4401 19.169 18.5371C18.1759 18.634 17.18 18.3836 16.3508 17.8285C15.5217 17.2734 14.9107 16.448 14.622 15.4929C14.3333 14.5378 14.3847 13.5121 14.7674 12.5907C15.1502 11.6692 15.8406 10.909 16.7211 10.4396C17.6015 9.97012 18.6175 9.82051 19.5959 10.0162C20.5743 10.212 21.4546 10.7409 22.0867 11.5129C22.7188 12.2849 23.0637 13.2522 23.0625 14.25ZM21.8906 13.6875C21.7623 12.9476 21.3769 12.2768 20.8023 11.7933C20.2278 11.3098 19.5009 11.0446 18.75 11.0446C17.9991 11.0446 17.2722 11.3098 16.6977 11.7933C16.1231 12.2768 15.7377 12.9476 15.6094 13.6875H21.8906ZM12.9375 14.8125C12.9375 15.8071 12.5424 16.7609 11.8392 17.4642C11.1359 18.1674 10.1821 18.5625 9.1875 18.5625H3C2.85082 18.5625 2.70774 18.5032 2.60225 18.3977C2.49676 18.2923 2.4375 18.1492 2.4375 18V6C2.4375 5.85082 2.49676 5.70774 2.60225 5.60225C2.70774 5.49676 2.85082 5.4375 3 5.4375H8.0625C8.73742 5.43741 9.39687 5.63967 9.95568 6.01817C10.5145 6.39666 10.947 6.93401 11.1973 7.5608C11.4476 8.18759 11.5042 8.87503 11.3599 9.53433C11.2155 10.1936 10.8768 10.7945 10.3875 11.2594C11.1308 11.5104 11.7767 11.9883 12.2341 12.6257C12.6916 13.2631 12.9376 14.0279 12.9375 14.8125ZM3.5625 11.0625H8.0625C8.65924 11.0625 9.23153 10.8254 9.65349 10.4035C10.0754 9.98153 10.3125 9.40924 10.3125 8.8125C10.3125 8.21576 10.0754 7.64347 9.65349 7.22151C9.23153 6.79955 8.65924 6.5625 8.0625 6.5625H3.5625V11.0625ZM11.8125 14.8125C11.81 14.1171 11.5327 13.4508 11.0409 12.9591C10.5492 12.4673 9.88293 12.19 9.1875 12.1875H3.5625V17.4375H9.1875C9.88293 17.435 10.5492 17.1577 11.0409 16.6659C11.5327 16.1742 11.81 15.5079 11.8125 14.8125Z"  fill='currentColor'   />
		</symbol>
		<symbol id='ph_bowl-food-light' viewBox='0 0 24 24'>
			<path d="M21 9.93747H20.0409C19.8921 7.90661 18.9803 6.00729 17.4888 4.62102C15.9972 3.23476 14.0363 2.46423 12 2.46423C9.9637 2.46423 8.00281 3.23476 6.51124 4.62102C5.01967 6.00729 4.10789 7.90661 3.95906 9.93747H3C2.85082 9.93747 2.70774 9.99673 2.60225 10.1022C2.49676 10.2077 2.4375 10.3508 2.4375 10.5C2.44085 12.2685 2.93292 14.0018 3.85939 15.5083C4.78585 17.0148 6.11066 18.2359 7.6875 19.0368V19.5C7.6875 19.8481 7.82578 20.1819 8.07192 20.428C8.31806 20.6742 8.6519 20.8125 9 20.8125H15C15.3481 20.8125 15.6819 20.6742 15.9281 20.428C16.1742 20.1819 16.3125 19.8481 16.3125 19.5V19.0368C17.8893 18.2359 19.2141 17.0148 20.1406 15.5083C21.0671 14.0018 21.5592 12.2685 21.5625 10.5C21.5625 10.3508 21.5032 10.2077 21.3977 10.1022C21.2923 9.99673 21.1492 9.93747 21 9.93747ZM16.335 5.08966C16.6072 5.30762 16.8626 5.54579 17.0991 5.80216C16.0549 6.12721 15.088 6.6615 14.2571 7.37247C13.4262 8.08343 12.7488 8.95617 12.2662 9.93747H9.12562C9.56865 8.52651 10.4496 7.29335 11.6407 6.41679C12.8318 5.54024 14.2711 5.06587 15.75 5.06247C15.945 5.06247 16.1409 5.07278 16.335 5.08966ZM17.8406 6.7631C18.4539 7.71686 18.8223 8.80722 18.9131 9.93747H13.545C14.0153 9.15043 14.6372 8.46458 15.3746 7.91968C16.112 7.37477 16.9502 6.98165 17.8406 6.7631ZM12 3.56247C12.8594 3.56111 13.7114 3.72008 14.5125 4.03122C12.9652 4.27547 11.522 4.96354 10.3581 6.01194C9.19426 7.06035 8.35966 8.42401 7.95563 9.93747H5.08687C5.23004 8.20163 6.02013 6.58292 7.30055 5.40217C8.58097 4.22142 10.2583 3.56481 12 3.56247ZM15.5156 18.1725C15.4176 18.2174 15.3346 18.2895 15.2764 18.3803C15.2183 18.471 15.1874 18.5766 15.1875 18.6843V19.5C15.1875 19.5497 15.1677 19.5974 15.1326 19.6326C15.0974 19.6677 15.0497 19.6875 15 19.6875H9C8.95027 19.6875 8.90258 19.6677 8.86742 19.6326C8.83225 19.5974 8.8125 19.5497 8.8125 19.5V18.6843C8.8126 18.5766 8.78173 18.471 8.72356 18.3803C8.66539 18.2895 8.58236 18.2174 8.48438 18.1725C7.10449 17.5361 5.9212 16.5403 5.05854 15.2893C4.19588 14.0384 3.68562 12.5784 3.58125 11.0625H20.4188C20.3144 12.5784 19.8041 14.0384 18.9415 15.2893C18.0788 16.5403 16.8955 17.5361 15.5156 18.1725Z"  fill='currentColor'   />
		</symbol>
		<symbol id='ph_caret-down-light' viewBox='0 0 24 24'>
			<path d="M12 17.0625C11.9264 17.0625 11.8535 17.0475 11.7858 17.0185C11.7181 16.9895 11.657 16.947 11.6062 16.8937L4.10624 9.39371C4.05453 9.342 4.01352 9.28062 3.98553 9.21306C3.95755 9.1455 3.94315 9.07309 3.94315 8.99996C3.94315 8.92684 3.95755 8.85443 3.98553 8.78687C4.01352 8.71931 4.05453 8.65792 4.10624 8.60621C4.15795 8.5545 4.21934 8.51349 4.2869 8.4855C4.35446 8.45752 4.42687 8.44312 4.49999 8.44312C4.57312 8.44312 4.64553 8.45752 4.71309 8.4855C4.78065 8.51349 4.84203 8.5545 4.89374 8.60621L12 15.7031L19.1062 8.60621C19.2107 8.50178 19.3523 8.44312 19.5 8.44312C19.6477 8.44312 19.7893 8.50178 19.8937 8.60621C19.9982 8.71064 20.0568 8.85228 20.0568 8.99996C20.0568 9.14765 19.9982 9.28928 19.8937 9.39371L12.3937 16.8937C12.343 16.947 12.2819 16.9895 12.2142 17.0185C12.1465 17.0475 12.0736 17.0625 12 17.0625Z"  fill='currentColor'   />
		</symbol>
		<symbol id='ph_check-light' viewBox='0 0 24 24'>
			<path d="M9.74999 17.8125C9.67635 17.8125 9.60348 17.7975 9.5358 17.7685C9.46811 17.7395 9.40703 17.697 9.35624 17.6437L4.10624 12.3937C4.05453 12.342 4.01352 12.2806 3.98553 12.2131C3.95755 12.1455 3.94315 12.0731 3.94315 12C3.94315 11.9268 3.95755 11.8544 3.98553 11.7869C4.01352 11.7193 4.05453 11.6579 4.10624 11.6062C4.15795 11.5545 4.21934 11.5135 4.2869 11.4855C4.35446 11.4575 4.42687 11.4431 4.49999 11.4431C4.57312 11.4431 4.64553 11.4575 4.71309 11.4855C4.78065 11.5135 4.84203 11.5545 4.89374 11.6062L9.74999 16.4531L19.8562 6.35621C19.9607 6.25178 20.1023 6.19312 20.25 6.19312C20.3977 6.19312 20.5393 6.25178 20.6437 6.35621C20.7482 6.46064 20.8068 6.60228 20.8068 6.74996C20.8068 6.89765 20.7482 7.03928 20.6437 7.14371L10.1437 17.6437C10.093 17.697 10.0319 17.7395 9.96419 17.7685C9.8965 17.7975 9.82363 17.8125 9.74999 17.8125Z"  fill='currentColor'   />
		</symbol>
		<symbol id='ph_envelope-simple-light' viewBox='0 0 24 24'>
			<path d="M21 4.6875H3C2.85082 4.6875 2.70774 4.74676 2.60225 4.85225C2.49676 4.95774 2.4375 5.10082 2.4375 5.25V18C2.4375 18.3481 2.57578 18.6819 2.82192 18.9281C3.06806 19.1742 3.4019 19.3125 3.75 19.3125H20.25C20.5981 19.3125 20.9319 19.1742 21.1781 18.9281C21.4242 18.6819 21.5625 18.3481 21.5625 18V5.25C21.5625 5.10082 21.5032 4.95774 21.3977 4.85225C21.2923 4.74676 21.1492 4.6875 21 4.6875ZM19.5563 5.8125L12 12.7406L4.44375 5.8125H19.5563ZM20.25 18.1875H3.75C3.70027 18.1875 3.65258 18.1677 3.61742 18.1326C3.58225 18.0974 3.5625 18.0497 3.5625 18V6.525L11.6156 13.9125C11.7209 14.008 11.8579 14.0609 12 14.0609C12.1421 14.0609 12.2791 14.008 12.3844 13.9125L20.4375 6.525V18C20.4375 18.0497 20.4177 18.0974 20.3826 18.1326C20.3474 18.1677 20.2997 18.1875 20.25 18.1875Z"  fill='currentColor'   />
		</symbol>
		<symbol id='ph_facebook-logo-light' viewBox='0 0 24 24'>
			<path d="M21.5625 12C21.5625 10.1087 21.0017 8.25991 19.9509 6.68736C18.9002 5.11482 17.4067 3.88917 15.6594 3.16541C13.9121 2.44164 11.9894 2.25227 10.1345 2.62125C8.27951 2.99022 6.57564 3.90096 5.2383 5.2383C3.90096 6.57564 2.99022 8.27951 2.62125 10.1345C2.25227 11.9894 2.44164 13.9121 3.16541 15.6594C3.88917 17.4067 5.11482 18.9002 6.68736 19.9509C8.25991 21.0017 10.1087 21.5625 12 21.5625C14.5354 21.56 16.9662 20.5518 18.759 18.759C20.5518 16.9662 21.56 14.5354 21.5625 12ZM12.5625 20.4188V14.0625H15C15.1492 14.0625 15.2923 14.0032 15.3978 13.8978C15.5032 13.7923 15.5625 13.6492 15.5625 13.5C15.5625 13.3508 15.5032 13.2077 15.3978 13.1023C15.2923 12.9968 15.1492 12.9375 15 12.9375H12.5625V10.5C12.565 10.0532 12.7435 9.62542 13.0595 9.30948C13.3754 8.99355 13.8032 8.81497 14.25 8.8125H15.75C15.8992 8.8125 16.0423 8.75324 16.1478 8.64775C16.2532 8.54226 16.3125 8.39919 16.3125 8.25C16.3125 8.10082 16.2532 7.95775 16.1478 7.85226C16.0423 7.74677 15.8992 7.6875 15.75 7.6875H14.25C13.5048 7.68998 12.7909 7.98709 12.264 8.514C11.7371 9.04091 11.44 9.75484 11.4375 10.5V12.9375H9C8.85082 12.9375 8.70775 12.9968 8.60226 13.1023C8.49677 13.2077 8.4375 13.3508 8.4375 13.5C8.4375 13.6492 8.49677 13.7923 8.60226 13.8978C8.70775 14.0032 8.85082 14.0625 9 14.0625H11.4375V20.4188C9.25334 20.2728 7.21138 19.2837 5.74285 17.6604C4.27432 16.037 3.49419 13.9064 3.5672 11.7186C3.64021 9.5308 4.56064 7.45699 6.13413 5.93514C7.70761 4.41328 9.81097 3.56253 12 3.56253C14.189 3.56253 16.2924 4.41328 17.8659 5.93514C19.4394 7.45699 20.3598 9.5308 20.4328 11.7186C20.5058 13.9064 19.7257 16.037 18.2572 17.6604C16.7886 19.2837 14.7467 20.2728 12.5625 20.4188Z"  fill='currentColor'   />
		</symbol>
		<symbol id='ph_instagram-logo-light' viewBox='0 0 24 24'>
			<path d="M12 7.6875C11.1471 7.6875 10.3133 7.94042 9.6041 8.41429C8.89492 8.88815 8.34217 9.56167 8.01577 10.3497C7.68937 11.1377 7.60397 12.0048 7.77036 12.8413C7.93676 13.6779 8.34749 14.4463 8.9506 15.0494C9.55372 15.6525 10.3221 16.0632 11.1587 16.2296C11.9952 16.396 12.8623 16.3106 13.6503 15.9842C14.4383 15.6578 15.1118 15.1051 15.5857 14.3959C16.0596 13.6867 16.3125 12.8529 16.3125 12C16.3125 10.8563 15.8581 9.75935 15.0494 8.9506C14.2406 8.14185 13.1437 7.6875 12 7.6875ZM12 15.1875C11.3696 15.1875 10.7533 15.0006 10.2291 14.6503C9.70494 14.3001 9.29639 13.8022 9.05513 13.2198C8.81388 12.6374 8.75076 11.9965 8.87375 11.3781C8.99674 10.7598 9.30032 10.1919 9.7461 9.7461C10.1919 9.30032 10.7598 8.99674 11.3781 8.87375C11.9965 8.75076 12.6374 8.81388 13.2198 9.05513C13.8022 9.29639 14.3001 9.70494 14.6503 10.2291C15.0006 10.7533 15.1875 11.3696 15.1875 12C15.185 12.8446 14.8484 13.6539 14.2512 14.2512C13.6539 14.8484 12.8446 15.185 12 15.1875ZM16.125 2.8125H7.875C6.53234 2.8125 5.24467 3.34587 4.29527 4.29527C3.34587 5.24467 2.8125 6.53234 2.8125 7.875V16.125C2.8125 17.4677 3.34587 18.7553 4.29527 19.7047C5.24467 20.6541 6.53234 21.1875 7.875 21.1875H16.125C17.4677 21.1875 18.7553 20.6541 19.7047 19.7047C20.6541 18.7553 21.1875 17.4677 21.1875 16.125V7.875C21.1875 6.53234 20.6541 5.24467 19.7047 4.29527C18.7553 3.34587 17.4677 2.8125 16.125 2.8125ZM20.0625 16.125C20.0625 17.1693 19.6477 18.1708 18.9092 18.9092C18.1708 19.6477 17.1693 20.0625 16.125 20.0625H7.875C6.83071 20.0625 5.82919 19.6477 5.09077 18.9092C4.35234 18.1708 3.9375 17.1693 3.9375 16.125V7.875C3.9375 6.83071 4.35234 5.82919 5.09077 5.09077C5.82919 4.35234 6.83071 3.9375 7.875 3.9375H16.125C17.1693 3.9375 18.1708 4.35234 18.9092 5.09077C19.6477 5.82919 20.0625 6.83071 20.0625 7.875V16.125ZM17.8125 7.125C17.8125 7.31042 17.7575 7.49168 17.6545 7.64585C17.5515 7.80002 17.4051 7.92018 17.2338 7.99114C17.0625 8.06209 16.874 8.08066 16.6921 8.04449C16.5102 8.00831 16.3432 7.91902 16.2121 7.78791C16.081 7.6568 15.9917 7.48975 15.9555 7.3079C15.9193 7.12604 15.9379 6.93754 16.0089 6.76623C16.0798 6.59493 16.2 6.44851 16.3542 6.3455C16.5083 6.24248 16.6896 6.1875 16.875 6.1875C17.1236 6.1875 17.3621 6.28627 17.5379 6.46209C17.7137 6.6379 17.8125 6.87636 17.8125 7.125Z"  fill='currentColor'   />
		</symbol>
		<symbol id='ph_leaf-light' viewBox='0 0 24 24'>
			<path d="M20.7609 3.76778C20.7529 3.63017 20.6946 3.5003 20.5971 3.40282C20.4997 3.30535 20.3698 3.24706 20.2322 3.23903C13.1653 2.82278 7.51313 4.94153 5.11219 8.90621C3.47719 11.6053 3.54094 14.7937 5.28 17.925L3.3525 19.8525C3.29724 19.904 3.25291 19.9661 3.22216 20.0351C3.19142 20.1041 3.17489 20.1785 3.17356 20.2541C3.17222 20.3296 3.18612 20.4046 3.21441 20.4747C3.2427 20.5447 3.28481 20.6083 3.33822 20.6617C3.39164 20.7152 3.45526 20.7573 3.5253 20.7856C3.59534 20.8138 3.67037 20.8277 3.74589 20.8264C3.82142 20.8251 3.8959 20.8085 3.9649 20.7778C4.0339 20.7471 4.096 20.7027 4.1475 20.6475L6.075 18.72C7.69406 19.619 9.32813 20.0709 10.9022 20.0709C12.3819 20.0714 13.8327 19.6619 15.0938 18.8878C19.0584 16.4868 21.1763 10.8347 20.7609 3.76778ZM14.5116 17.924C12.2541 19.2909 9.57656 19.2712 6.90563 17.8875L15.3984 9.39465C15.4978 9.28802 15.5519 9.14699 15.5493 9.00126C15.5467 8.85553 15.4877 8.7165 15.3847 8.61344C15.2816 8.51038 15.1426 8.45134 14.9968 8.44877C14.8511 8.4462 14.7101 8.50029 14.6034 8.59965L6.11063 17.0943C4.72688 14.4234 4.70438 11.7506 6.07406 9.4884C8.20031 5.97934 13.2581 4.06965 19.6678 4.33684C19.9303 10.7418 18.0206 15.8006 14.5116 17.9259V17.924Z"  fill='currentColor'   />
		</symbol>
		<symbol id='ph_linkedin-logo-light' viewBox='0 0 24 24'>
			<path d="M20.25 2.4375H3.75C3.4019 2.4375 3.06806 2.57578 2.82192 2.82192C2.57578 3.06806 2.4375 3.4019 2.4375 3.75V20.25C2.4375 20.5981 2.57578 20.9319 2.82192 21.1781C3.06806 21.4242 3.4019 21.5625 3.75 21.5625H20.25C20.5981 21.5625 20.9319 21.4242 21.1781 21.1781C21.4242 20.9319 21.5625 20.5981 21.5625 20.25V3.75C21.5625 3.4019 21.4242 3.06806 21.1781 2.82192C20.9319 2.57578 20.5981 2.4375 20.25 2.4375ZM20.4375 20.25C20.4375 20.2997 20.4177 20.3474 20.3826 20.3826C20.3474 20.4177 20.2997 20.4375 20.25 20.4375H3.75C3.70027 20.4375 3.65258 20.4177 3.61742 20.3826C3.58225 20.3474 3.5625 20.2997 3.5625 20.25V3.75C3.5625 3.70027 3.58225 3.65258 3.61742 3.61742C3.65258 3.58225 3.70027 3.5625 3.75 3.5625H20.25C20.2997 3.5625 20.3474 3.58225 20.3826 3.61742C20.4177 3.65258 20.4375 3.70027 20.4375 3.75V20.25ZM8.8125 10.5V16.5C8.8125 16.6492 8.75324 16.7923 8.64775 16.8977C8.54226 17.0032 8.39918 17.0625 8.25 17.0625C8.10082 17.0625 7.95774 17.0032 7.85225 16.8977C7.74676 16.7923 7.6875 16.6492 7.6875 16.5V10.5C7.6875 10.3508 7.74676 10.2077 7.85225 10.1023C7.95774 9.99676 8.10082 9.9375 8.25 9.9375C8.39918 9.9375 8.54226 9.99676 8.64775 10.1023C8.75324 10.2077 8.8125 10.3508 8.8125 10.5ZM17.0625 13.125V16.5C17.0625 16.6492 17.0032 16.7923 16.8977 16.8977C16.7923 17.0032 16.6492 17.0625 16.5 17.0625C16.3508 17.0625 16.2077 17.0032 16.1023 16.8977C15.9968 16.7923 15.9375 16.6492 15.9375 16.5V13.125C15.9375 12.578 15.7202 12.0534 15.3334 11.6666C14.9466 11.2798 14.422 11.0625 13.875 11.0625C13.328 11.0625 12.8034 11.2798 12.4166 11.6666C12.0298 12.0534 11.8125 12.578 11.8125 13.125V16.5C11.8125 16.6492 11.7532 16.7923 11.6477 16.8977C11.5423 17.0032 11.3992 17.0625 11.25 17.0625C11.1008 17.0625 10.9577 17.0032 10.8523 16.8977C10.7468 16.7923 10.6875 16.6492 10.6875 16.5V10.5C10.6875 10.3508 10.7468 10.2077 10.8523 10.1023C10.9577 9.99676 11.1008 9.9375 11.25 9.9375C11.3992 9.9375 11.5423 9.99676 11.6477 10.1023C11.7532 10.2077 11.8125 10.3508 11.8125 10.5V10.6978C12.2761 10.3044 12.8425 10.0518 13.4449 9.96973C14.0474 9.8877 14.6607 9.97968 15.2126 10.2348C15.7645 10.49 16.2319 10.8976 16.5597 11.4097C16.8874 11.9218 17.0619 12.517 17.0625 13.125ZM9.1875 7.875C9.1875 8.06042 9.13252 8.24168 9.0295 8.39585C8.92649 8.55002 8.78007 8.67018 8.60877 8.74114C8.43746 8.81209 8.24896 8.83066 8.0671 8.79449C7.88525 8.75831 7.7182 8.66902 7.58709 8.53791C7.45598 8.4068 7.36669 8.23975 7.33051 8.0579C7.29434 7.87604 7.31291 7.68754 7.38386 7.51623C7.45482 7.34493 7.57498 7.19851 7.72915 7.0955C7.88332 6.99248 8.06458 6.9375 8.25 6.9375C8.49864 6.9375 8.7371 7.03627 8.91291 7.21209C9.08873 7.3879 9.1875 7.62636 9.1875 7.875Z"  fill='currentColor'   />
		</symbol>
		<symbol id='ph_minus-light' viewBox='0 0 24 24'>
			<path d="M20.25 12.5625H3.75C3.60082 12.5625 3.45774 12.5032 3.35225 12.3977C3.24676 12.2923 3.1875 12.1492 3.1875 12C3.1875 11.8508 3.24676 11.7077 3.35225 11.6023C3.45774 11.4968 3.60082 11.4375 3.75 11.4375H20.25C20.3992 11.4375 20.5423 11.4968 20.6477 11.6023C20.7532 11.7077 20.8125 11.8508 20.8125 12C20.8125 12.1492 20.7532 12.2923 20.6477 12.3977C20.5423 12.5032 20.3992 12.5625 20.25 12.5625Z"  fill='currentColor'   />
		</symbol>
		<symbol id='ph_phone-light' viewBox='0 0 24 24'>
			<path d="M16.5 20.8125C9.15938 20.8125 3.1875 14.8406 3.1875 7.49997C3.18883 6.2678 3.63866 5.07825 4.45297 4.15352C5.26729 3.22879 6.39039 2.63212 7.6125 2.47497C7.89371 2.44205 8.17803 2.50095 8.42302 2.64287C8.66801 2.7848 8.86054 3.00214 8.97188 3.26247L10.8563 7.65934C10.9417 7.85828 10.977 8.07518 10.959 8.29096C10.9411 8.50674 10.8704 8.71479 10.7531 8.89684L9.1875 11.2781C9.17203 11.3049 9.16311 11.3351 9.16148 11.366C9.15985 11.397 9.16556 11.4279 9.17813 11.4562C9.89825 12.9327 11.0934 14.1246 12.5719 14.8406C12.6006 14.8535 12.6322 14.8585 12.6635 14.8552C12.6948 14.8519 12.7246 14.8404 12.75 14.8218L15.1031 13.2562C15.2834 13.1351 15.4912 13.0613 15.7075 13.0417C15.9238 13.022 16.1415 13.0571 16.3406 13.1437L20.7375 15.0281C20.9978 15.1394 21.2152 15.332 21.3571 15.5769C21.499 15.8219 21.5579 16.1063 21.525 16.3875C21.3678 17.6096 20.7712 18.7327 19.8464 19.547C18.9217 20.3613 17.7322 20.8111 16.5 20.8125ZM7.77188 3.59059H7.75313C6.8036 3.71541 5.93158 4.18041 5.29886 4.89933C4.66614 5.61825 4.31568 6.54228 4.3125 7.49997C4.31498 10.7315 5.59982 13.83 7.88488 16.1151C10.1699 18.4002 13.2684 19.685 16.5 19.6875C17.4577 19.6843 18.3817 19.3338 19.1006 18.7011C19.8196 18.0684 20.2846 17.1964 20.4094 16.2468C20.4126 16.2077 20.4035 16.1686 20.3833 16.135C20.3631 16.1014 20.3329 16.0749 20.2969 16.0593L15.9 14.175C15.8709 14.1638 15.8396 14.1597 15.8087 14.1629C15.7777 14.1662 15.748 14.1767 15.7219 14.1937L13.3781 15.7593C13.1884 15.884 12.9699 15.958 12.7434 15.9745C12.517 15.9909 12.2901 15.9491 12.0844 15.8531C10.3791 15.0229 8.99989 13.647 8.16563 11.9437C8.0682 11.7404 8.02478 11.5154 8.03956 11.2905C8.05434 11.0655 8.12681 10.8482 8.25 10.6593L9.80625 8.27809C9.82483 8.2527 9.83635 8.22285 9.83964 8.19156C9.84294 8.16027 9.83788 8.12867 9.825 8.09997L7.94063 3.70309C7.92625 3.67013 7.90269 3.642 7.87277 3.62206C7.84285 3.60211 7.80783 3.59119 7.77188 3.59059Z"  fill='currentColor'   />
		</symbol>
		<symbol id='ph_pinterest-logo-light' viewBox='0 0 24 24'>
			<path d="M20.8125 10.5C20.8125 12.5672 20.0906 14.4553 18.78 15.8185C17.5613 17.086 15.9103 17.8125 14.25 17.8125C12.4294 17.8125 11.2922 17.1497 10.6284 16.5338L9.5475 21.1275C9.51872 21.2512 9.44896 21.3615 9.34956 21.4404C9.25016 21.5194 9.12696 21.5625 9 21.5625C8.95675 21.5625 8.91366 21.5575 8.87156 21.5475C8.72638 21.5134 8.60067 21.4231 8.52209 21.2963C8.44351 21.1696 8.41848 21.0168 8.4525 20.8716L11.4525 8.1216C11.468 8.0483 11.498 7.97885 11.5407 7.9173C11.5834 7.85575 11.638 7.80335 11.7012 7.76318C11.7644 7.72301 11.835 7.69587 11.9089 7.68336C11.9828 7.67085 12.0584 7.67322 12.1313 7.69033C12.2042 7.70744 12.273 7.73894 12.3336 7.78299C12.3942 7.82704 12.4454 7.88275 12.4841 7.94685C12.5229 8.01095 12.5485 8.08215 12.5594 8.15627C12.5702 8.23039 12.5662 8.30593 12.5475 8.37847L10.9453 15.1875C11.2078 15.5935 12.1134 16.6875 14.25 16.6875C16.9228 16.6875 19.6875 14.3728 19.6875 10.5C19.6872 9.43612 19.4421 8.38653 18.9713 7.43245C18.5005 6.47836 17.8166 5.64534 16.9724 4.9978C16.1283 4.35025 15.1465 3.90554 14.103 3.69804C13.0595 3.49055 11.9823 3.52584 10.9546 3.80117C9.92694 4.07651 8.97636 4.58452 8.17639 5.28592C7.37641 5.98731 6.74847 6.86331 6.34113 7.84616C5.93378 8.82901 5.75795 9.89238 5.82722 10.954C5.89649 12.0157 6.20902 13.0472 6.74063 13.9688C6.77917 14.0328 6.80457 14.1039 6.81535 14.1778C6.82612 14.2518 6.82205 14.3271 6.80338 14.3995C6.7847 14.4719 6.75179 14.5398 6.70658 14.5993C6.66136 14.6588 6.60474 14.7087 6.54002 14.746C6.47531 14.7834 6.40379 14.8075 6.32966 14.8169C6.25552 14.8264 6.18025 14.8209 6.10824 14.8009C6.03623 14.7809 5.96893 14.7468 5.91027 14.7005C5.8516 14.6542 5.80275 14.5967 5.76656 14.5313C5.1486 13.4603 4.78526 12.2615 4.70465 11.0276C4.62404 9.79369 4.82831 8.5578 5.30167 7.41548C5.77504 6.27316 6.5048 5.25502 7.43453 4.43981C8.36425 3.62459 9.46903 3.03415 10.6634 2.71414C11.8578 2.39413 13.1098 2.35312 14.3226 2.5943C15.5353 2.83548 16.6764 3.35237 17.6574 4.105C18.6385 4.85764 19.4333 5.82584 19.9804 6.93474C20.5275 8.04364 20.8122 9.26352 20.8125 10.5Z"  fill='currentColor'   />
		</symbol>
		<symbol id='ph_plant-light' viewBox='0 0 24 24'>
			<path d="M23.0278 4.50005C23.0196 4.36275 22.9613 4.23323 22.8641 4.13598C22.7668 4.03872 22.6373 3.98047 22.5 3.97223C17.7188 3.69098 13.8863 5.13661 12.2484 7.84036C11.1581 9.6413 11.1816 11.8416 12.2981 13.9341C11.5822 14.7536 11.0832 15.7397 10.8469 16.8019L8.99063 14.9447C9.75469 13.4354 9.75001 11.8557 8.96063 10.5525C7.75969 8.56973 4.96875 7.50661 1.49063 7.71286C1.35318 7.72112 1.22354 7.7795 1.12626 7.87695C1.02899 7.9744 0.970831 8.10415 0.962818 8.24161C0.758443 11.7188 1.81969 14.5097 3.80251 15.7107C4.44828 16.1054 5.19067 16.3137 5.9475 16.3125C6.73129 16.3045 7.50213 16.1117 8.19751 15.75L10.6875 18.2325V21C10.6875 21.1492 10.7468 21.2923 10.8523 21.3978C10.9577 21.5033 11.1008 21.5625 11.25 21.5625C11.3992 21.5625 11.5423 21.5033 11.6478 21.3978C11.7532 21.2923 11.8125 21.1492 11.8125 21V18.2354C11.8088 16.9467 12.2663 15.6993 13.1025 14.7188C14.1534 15.2747 15.2325 15.5541 16.2731 15.5541C17.291 15.5575 18.2899 15.2794 19.1597 14.7507C21.8634 13.1147 23.3091 9.2813 23.0278 4.50005ZM4.38563 14.7479C2.85657 13.8225 2.00532 11.625 2.06251 8.81255C4.87501 8.75161 7.06969 9.6038 7.99501 11.1329C8.5275 12.0113 8.5725 13.0435 8.13938 14.0944L5.64751 11.6016C5.54196 11.4961 5.3988 11.4368 5.24954 11.4368C5.10027 11.4368 4.95712 11.4961 4.85157 11.6016C4.74602 11.7072 4.68672 11.8503 4.68672 11.9996C4.68672 12.1488 4.74602 12.292 4.85157 12.3975L7.34719 14.8922C6.29626 15.3254 5.26407 15.2813 4.38563 14.7479ZM18.5775 13.7897C17.1956 14.626 15.5644 14.6504 13.9209 13.8741L19.1484 8.64755C19.2007 8.59528 19.2422 8.53324 19.2704 8.46496C19.2987 8.39667 19.3133 8.32349 19.3133 8.24958C19.3133 8.17567 19.2987 8.10248 19.2704 8.0342C19.2422 7.96592 19.2007 7.90387 19.1484 7.85161C19.0962 7.79935 19.0341 7.75789 18.9659 7.72961C18.8976 7.70132 18.8244 7.68676 18.7505 7.68676C18.6766 7.68676 18.6034 7.70132 18.5351 7.72961C18.4668 7.75789 18.4048 7.79935 18.3525 7.85161L13.125 13.0791C12.3488 11.4357 12.375 9.80442 13.2094 8.42348C14.5706 6.17348 17.8088 4.93786 21.9281 5.07192C22.0622 9.18755 20.8256 12.4275 18.5775 13.7897Z"  fill='currentColor'   />
		</symbol>
		<symbol id='ph_plus-light' viewBox='0 0 24 24'>
			<path d="M20.8125 12C20.8125 12.1492 20.7532 12.2923 20.6477 12.3977C20.5423 12.5032 20.3992 12.5625 20.25 12.5625H12.5625V20.25C12.5625 20.3992 12.5032 20.5423 12.3977 20.6477C12.2923 20.7532 12.1492 20.8125 12 20.8125C11.8508 20.8125 11.7077 20.7532 11.6023 20.6477C11.4968 20.5423 11.4375 20.3992 11.4375 20.25V12.5625H3.75C3.60082 12.5625 3.45774 12.5032 3.35225 12.3977C3.24676 12.2923 3.1875 12.1492 3.1875 12C3.1875 11.8508 3.24676 11.7077 3.35225 11.6023C3.45774 11.4968 3.60082 11.4375 3.75 11.4375H11.4375V3.75C11.4375 3.60082 11.4968 3.45774 11.6023 3.35225C11.7077 3.24676 11.8508 3.1875 12 3.1875C12.1492 3.1875 12.2923 3.24676 12.3977 3.35225C12.5032 3.45774 12.5625 3.60082 12.5625 3.75V11.4375H20.25C20.3992 11.4375 20.5423 11.4968 20.6477 11.6023C20.7532 11.7077 20.8125 11.8508 20.8125 12Z"  fill='currentColor'   />
		</symbol>
		<symbol id='ph_twitter-logo-light' viewBox='0 0 24 24'>
			<path d="M23.0157 6.53442C22.9733 6.43234 22.9018 6.345 22.8101 6.28331C22.7184 6.22162 22.6105 6.18831 22.5 6.18754H19.5375C19.1714 5.515 18.6327 4.95209 17.977 4.55666C17.3212 4.16122 16.572 3.94753 15.8063 3.93754C14.6558 3.93254 13.5502 4.3835 12.7314 5.19172C11.9127 5.99994 11.4474 7.09961 11.4375 8.25004V9.06567C7.46252 8.11879 4.18127 4.88442 4.14377 4.85629C4.0715 4.78494 3.98126 4.73449 3.88262 4.7103C3.78399 4.6861 3.68064 4.68906 3.58355 4.71886C3.48646 4.74866 3.39925 4.80419 3.33118 4.87955C3.2631 4.95492 3.2167 5.04731 3.1969 5.14692C2.38127 9.60942 3.7219 12.5907 4.98752 14.3063C5.65878 15.2249 6.48335 16.0209 7.42502 16.6594C5.9719 18.4219 3.58127 19.3407 3.55315 19.35C3.47328 19.3795 3.40127 19.4269 3.34273 19.4887C3.28419 19.5505 3.2407 19.6249 3.21565 19.7063C3.18905 19.7857 3.18113 19.8701 3.19251 19.953C3.20389 20.036 3.23427 20.1152 3.28127 20.1844C3.37502 20.325 4.29377 21.5625 7.50002 21.5625C14.0344 21.5625 19.5 16.5094 20.025 10.0219L22.8938 7.14379C22.9751 7.0676 23.0306 6.9679 23.0524 6.85864C23.0743 6.74938 23.0614 6.63602 23.0157 6.53442ZM19.0781 9.37504C18.9806 9.47233 18.9237 9.603 18.9188 9.74067C18.5344 15.7407 13.5188 20.4375 7.50002 20.4375C6.1969 20.4375 5.36252 20.2125 4.86565 19.9875C5.92502 19.4532 7.6594 18.4032 8.71877 16.8094C8.76098 16.7433 8.78938 16.6694 8.80227 16.5921C8.81516 16.5147 8.81227 16.4356 8.79377 16.3594C8.77379 16.2815 8.73757 16.2086 8.68749 16.1456C8.63741 16.0826 8.57459 16.0309 8.50315 15.9938C8.4844 15.9938 7.07815 15.2625 5.8594 13.5938C4.40627 11.6063 3.8344 9.17817 4.15315 6.37504C5.5219 7.53754 8.47502 9.73129 11.9063 10.3032C11.987 10.3185 12.0702 10.3157 12.1497 10.2948C12.2292 10.274 12.3031 10.2357 12.366 10.1827C12.4288 10.1297 12.4791 10.0634 12.5131 9.98855C12.5471 9.91371 12.564 9.83223 12.5625 9.75004V8.25004C12.57 7.40046 12.9133 6.58835 13.5176 5.9911C14.1218 5.39386 14.9379 5.06003 15.7875 5.06254C16.4014 5.0714 16.9999 5.25634 17.5117 5.59537C18.0236 5.93439 18.4274 6.41326 18.675 6.97504C18.7178 7.0761 18.7897 7.16215 18.8815 7.22225C18.9733 7.28235 19.0809 7.31378 19.1907 7.31254H21.1407L19.0781 9.37504Z"  fill='currentColor'   />
		</symbol>
		<symbol id='ph_star' viewBox='0 0 12 12'>
			<path d="M5.83333 8.9075L9.43833 11.0833L8.48167 6.9825L11.6667 4.22333L7.4725 3.86167L5.83333 0L4.19417 3.86167L0 4.22333L3.17917 6.9825L2.22833 11.0833L5.83333 8.9075Z"  fill='currentColor'   />
		</symbol>
		<symbol id='ph_logo' viewBox='0 0 46 15'>
			<path d="M11.84 7.2L13.52 7.12C13.7733 7.12 13.9 7.2 13.9 7.36C13.9 7.53333 13.7466 7.64 13.44 7.68C13.32 7.70667 13.2 7.78 13.08 7.9C12.9733 8.00667 12.9 8.16667 12.86 8.38C12.5666 10.2067 12.42 11.4867 12.42 12.22V12.84C12.42 13.1067 12.3933 13.2667 12.34 13.32C12.3 13.36 12.2 13.4 12.04 13.44C11.88 13.48 11.7533 13.52 11.66 13.56C11.58 13.5867 11.4466 13.64 11.26 13.72C11.0733 13.7867 10.9 13.8467 10.74 13.9C10.5933 13.9533 10.38 14.0267 10.1 14.12C9.81997 14.2 9.54664 14.2667 9.27997 14.32C8.6133 14.4533 7.94664 14.52 7.27997 14.52C4.91997 14.52 3.1133 13.8467 1.85997 12.5C0.619971 11.1533 -2.92808e-05 9.36667 -2.92808e-05 7.14C-2.92808e-05 6.1 0.306637 4.94 0.919971 3.66C1.23997 2.99333 1.71997 2.37333 2.35997 1.8C3.0133 1.21333 3.77997 0.766666 4.65997 0.459999C5.5533 0.153333 6.3533 -7.15256e-07 7.05997 -7.15256e-07C7.77997 -7.15256e-07 8.41997 0.0533327 8.97997 0.16C9.5533 0.253333 10.0333 0.373332 10.42 0.519999C10.8066 0.666666 11.1466 0.813332 11.44 0.959999C11.7466 1.10667 11.9866 1.23333 12.16 1.34C12.3333 1.43333 12.4333 1.48 12.46 1.48C12.5 1.48 12.5933 1.41333 12.74 1.28C12.8866 1.14667 12.9866 1.08 13.04 1.08C13.2133 1.08 13.3 1.2 13.3 1.44L13.26 2.48C13.26 2.74667 13.28 3.08 13.32 3.48C13.3733 3.88 13.4 4.10667 13.4 4.16C13.4 4.46667 13.2866 4.62 13.06 4.62C12.9533 4.62 12.8733 4.56 12.82 4.44C12.7666 4.30667 12.6933 4.10667 12.6 3.84C12.5066 3.56 12.38 3.30667 12.22 3.08C11.7133 2.32 10.9733 1.74 9.99997 1.34C9.03997 0.939999 8.01997 0.739999 6.93997 0.739999C5.92664 0.739999 5.00664 0.986666 4.17997 1.48C3.69997 1.77333 3.27997 2.15333 2.91997 2.62C2.5733 3.07333 2.27997 3.69333 2.03997 4.48C1.8133 5.26667 1.69997 6.16667 1.69997 7.18C1.69997 9.03333 2.2133 10.6067 3.23997 11.9C4.27997 13.18 5.6333 13.82 7.29997 13.82C7.9133 13.82 8.42664 13.7733 8.83997 13.68C9.2533 13.5867 9.6533 13.4 10.04 13.12C10.8133 12.5333 11.2 11.3133 11.2 9.46V9.34C11.2 8.64667 11.14 8.21333 11.02 8.04C10.9133 7.85333 10.6066 7.76 10.1 7.76H9.91997C9.5333 7.76 9.33997 7.64 9.33997 7.4C9.33997 7.22667 9.55997 7.14 9.99997 7.14L11.84 7.2ZM15.0887 8.44C15.0887 7.93333 15.3087 7.36 15.7487 6.72C16.2021 6.08 16.7354 5.76 17.3487 5.76C17.5621 5.76 17.7287 5.87333 17.8487 6.1C18.0221 6.39333 18.1087 6.80667 18.1087 7.34C18.1087 7.86 17.9821 8.77333 17.7287 10.08C17.4887 11.3733 17.3687 12.18 17.3687 12.5C17.3687 12.82 17.4087 13.0333 17.4887 13.14C17.5687 13.2333 17.6421 13.28 17.7087 13.28C17.7887 13.28 17.8621 13.2733 17.9287 13.26C18.0087 13.2333 18.0887 13.2 18.1687 13.16C18.2487 13.1067 18.3221 13.0533 18.3887 13C18.4554 12.9467 18.5354 12.8733 18.6287 12.78C18.7354 12.6867 18.8154 12.6067 18.8687 12.54C18.9354 12.4733 19.0221 12.38 19.1287 12.26C19.2487 12.1267 19.3421 12.02 19.4087 11.94C19.6087 11.7 19.8087 11.46 20.0087 11.22C20.9554 10.0733 21.7287 8.34667 22.3287 6.04C22.3821 5.82667 22.6021 5.72 22.9887 5.72C23.3754 5.72 23.5687 5.86667 23.5687 6.16C23.5687 6.29333 23.3621 7.3 22.9487 9.18C22.5487 11.06 22.3487 12.1733 22.3487 12.52C22.3487 12.8667 22.4954 13.04 22.7887 13.04C23.3487 13.04 23.8087 12.6667 24.1687 11.92C24.2887 11.68 24.4021 11.56 24.5087 11.56C24.6954 11.56 24.7887 11.72 24.7887 12.04C24.7887 12.36 24.4754 12.8533 23.8487 13.52C23.2221 14.1733 22.4954 14.5 21.6687 14.5C21.2687 14.5 21.0687 14.14 21.0687 13.42C21.0687 12.7533 21.1287 12.0867 21.2487 11.42C21.3687 10.7533 21.4287 10.38 21.4287 10.3C21.4287 10.2067 21.4021 10.16 21.3487 10.16C21.3087 10.16 21.2621 10.2067 21.2087 10.3C21.1554 10.38 21.0687 10.5333 20.9487 10.76C20.8287 10.9733 20.6821 11.2 20.5087 11.44C19.0554 13.5067 17.7754 14.54 16.6687 14.54C16.2154 14.54 15.9887 14.1267 15.9887 13.3C15.9887 12.4733 16.1354 11.4133 16.4287 10.12C16.7354 8.82667 16.8887 8.02667 16.8887 7.72C16.8887 7.41333 16.7554 7.26 16.4887 7.26C16.3954 7.26 16.2554 7.38 16.0687 7.62C15.8821 7.84667 15.7354 8.08667 15.6287 8.34C15.5221 8.58 15.4021 8.7 15.2687 8.7C15.1487 8.7 15.0887 8.61333 15.0887 8.44ZM27.7565 14.56C27.1965 14.56 26.6765 14.46 26.1965 14.26C25.7299 14.0467 25.4965 13.7067 25.4965 13.24C25.4965 12.76 25.7099 12.52 26.1365 12.52C26.3632 12.52 26.5499 12.5933 26.6965 12.74C26.8432 12.8867 26.9499 13.0467 27.0165 13.22C27.0832 13.38 27.2032 13.5333 27.3765 13.68C27.5499 13.8267 27.7832 13.9 28.0765 13.9C28.3832 13.9 28.6565 13.8467 28.8965 13.74C29.1365 13.6333 29.3032 13.5 29.3965 13.34C29.5565 13.06 29.6365 12.8133 29.6365 12.6C29.6365 12.3867 29.6099 12.1933 29.5565 12.02C29.5032 11.8333 29.3765 11.62 29.1765 11.38C28.9899 11.14 28.8632 10.9867 28.7965 10.92C28.3699 10.4933 28.0232 10.1533 27.7565 9.9C27.5032 9.63333 27.3099 9.42 27.1765 9.26C27.0565 9.1 26.9699 8.96 26.9165 8.84C26.7699 8.50667 26.6965 8.17333 26.6965 7.84C26.6965 7.17333 26.9499 6.63333 27.4565 6.22C27.9765 5.79333 28.6299 5.58 29.4165 5.58C30.6565 5.58 31.2765 5.92667 31.2765 6.62C31.2765 6.80667 31.2165 6.96 31.0965 7.08C30.9365 7.22667 30.7365 7.3 30.4965 7.3C30.2699 7.3 30.0165 7.11333 29.7365 6.74C29.4699 6.36667 29.2032 6.18 28.9365 6.18C28.2299 6.18 27.8765 6.53333 27.8765 7.24C27.8765 7.65333 28.2165 8.17333 28.8965 8.8C29.2565 9.13333 29.4499 9.32 29.4765 9.36C29.5165 9.4 29.6299 9.52667 29.8165 9.74C30.0165 9.94 30.1499 10.0933 30.2165 10.2C30.2965 10.2933 30.3965 10.44 30.5165 10.64C30.7299 10.9733 30.8365 11.3267 30.8365 11.7C30.8365 12.0733 30.7899 12.3933 30.6965 12.66C30.6032 12.9267 30.4499 13.2133 30.2365 13.52C30.0365 13.8133 29.7165 14.06 29.2765 14.26C28.8365 14.46 28.3299 14.56 27.7565 14.56ZM36.9767 6.94L35.3567 6.84C35.1834 6.84 35.07 6.86667 35.0167 6.92C34.9634 6.97333 34.9234 7.02 34.8967 7.06C34.87 7.08667 34.85 7.14 34.8367 7.22C34.8234 7.3 34.81 7.36667 34.7967 7.42C34.7834 7.47333 34.77 7.56667 34.7567 7.7C34.7434 7.83333 34.7234 8 34.6967 8.2C34.67 8.4 34.6034 8.84 34.4967 9.52C34.2167 11.16 34.0767 12.0933 34.0767 12.32C34.0767 12.5467 34.1434 12.7533 34.2767 12.94C34.4234 13.1133 34.5434 13.2133 34.6367 13.24C34.73 13.2667 34.8767 13.28 35.0767 13.28C35.2767 13.28 35.51 13.2067 35.7767 13.06C36.0434 12.9133 36.2567 12.7667 36.4167 12.62C36.5767 12.4733 36.6967 12.4 36.7767 12.4C36.9234 12.4 36.9967 12.4933 36.9967 12.68C36.9967 12.9733 36.65 13.36 35.9567 13.84C35.2634 14.32 34.63 14.56 34.0567 14.56C33.71 14.56 33.41 14.42 33.1567 14.14C32.9034 13.86 32.7767 13.3667 32.7767 12.66C32.7767 11.9533 32.9167 10.86 33.1967 9.38C33.4767 7.9 33.6167 7.12667 33.6167 7.06C33.6167 6.92667 33.4167 6.85333 33.0167 6.84C32.63 6.82667 32.4367 6.72 32.4367 6.52C32.4367 6.41333 32.5034 6.32 32.6367 6.24C32.7834 6.14667 32.9967 6.02 33.2767 5.86C33.57 5.68667 33.8167 5.49333 34.0167 5.28C34.2167 5.06667 34.39 4.87333 34.5367 4.7C34.6834 4.52667 34.79 4.40667 34.8567 4.34C34.9767 4.19333 35.1034 4.12 35.2367 4.12C35.37 4.12 35.4367 4.2 35.4367 4.36C35.4367 4.44 35.3767 4.68667 35.2567 5.1C35.1367 5.5 35.0767 5.74667 35.0767 5.84C35.0767 5.92 35.11 5.96667 35.1767 5.98C35.2567 5.99333 35.4567 6 35.7767 6L36.9367 5.98C37.2834 5.98 37.4567 6.1 37.4567 6.34C37.4567 6.58 37.4234 6.74 37.3567 6.82C37.29 6.9 37.1634 6.94 36.9767 6.94ZM41.2998 14.52C40.3931 14.52 39.6465 14.2133 39.0598 13.6C38.4865 12.9867 38.1998 12.0533 38.1998 10.8C38.1998 9.53333 38.6265 8.35333 39.4798 7.26C40.3465 6.16667 41.4931 5.62 42.9198 5.62C43.8665 5.62 44.5865 5.96 45.0798 6.64C45.5865 7.30667 45.8398 8.11333 45.8398 9.06C45.8398 9.99333 45.6665 10.86 45.3198 11.66C44.9865 12.46 44.4598 13.14 43.7398 13.7C43.0198 14.2467 42.2065 14.52 41.2998 14.52ZM42.6198 6.22C42.1265 6.22 41.6465 6.44667 41.1798 6.9C40.7131 7.34 40.3531 7.98667 40.0998 8.84C39.8598 9.69333 39.7398 10.5 39.7398 11.26C39.7398 12.02 39.8998 12.6533 40.2198 13.16C40.5531 13.6667 40.9731 13.92 41.4798 13.92C41.9865 13.92 42.4331 13.74 42.8198 13.38C43.2198 13.02 43.5198 12.5733 43.7198 12.04C44.1465 10.9333 44.3598 9.91333 44.3598 8.98C44.3598 8.04667 44.1931 7.35333 43.8598 6.9C43.5398 6.44667 43.1265 6.22 42.6198 6.22Z"  fill='currentColor'   />
		</symbol>
	</defs>
</svg>