<svg width="46" height="15" viewBox="0 0 46 15" fill="none" xmlns="http://www.w3.org/2000/svg">
<path d="M11.84 7.2L13.52 7.12C13.7733 7.12 13.9 7.2 13.9 7.36C13.9 7.53333 13.7466 7.64 13.44 7.68C13.32 7.70667 13.2 7.78 13.08 7.9C12.9733 8.00667 12.9 8.16667 12.86 8.38C12.5666 10.2067 12.42 11.4867 12.42 12.22V12.84C12.42 13.1067 12.3933 13.2667 12.34 13.32C12.3 13.36 12.2 13.4 12.04 13.44C11.88 13.48 11.7533 13.52 11.66 13.56C11.58 13.5867 11.4466 13.64 11.26 13.72C11.0733 13.7867 10.9 13.8467 10.74 13.9C10.5933 13.9533 10.38 14.0267 10.1 14.12C9.81997 14.2 9.54664 14.2667 9.27997 14.32C8.6133 14.4533 7.94664 14.52 7.27997 14.52C4.91997 14.52 3.1133 13.8467 1.85997 12.5C0.619971 11.1533 -2.92808e-05 9.36667 -2.92808e-05 7.14C-2.92808e-05 6.1 0.306637 4.94 0.919971 3.66C1.23997 2.99333 1.71997 2.37333 2.35997 1.8C3.0133 1.21333 3.77997 0.766666 4.65997 0.459999C5.5533 0.153333 6.3533 -7.15256e-07 7.05997 -7.15256e-07C7.77997 -7.15256e-07 8.41997 0.0533327 8.97997 0.16C9.5533 0.253333 10.0333 0.373332 10.42 0.519999C10.8066 0.666666 11.1466 0.813332 11.44 0.959999C11.7466 1.10667 11.9866 1.23333 12.16 1.34C12.3333 1.43333 12.4333 1.48 12.46 1.48C12.5 1.48 12.5933 1.41333 12.74 1.28C12.8866 1.14667 12.9866 1.08 13.04 1.08C13.2133 1.08 13.3 1.2 13.3 1.44L13.26 2.48C13.26 2.74667 13.28 3.08 13.32 3.48C13.3733 3.88 13.4 4.10667 13.4 4.16C13.4 4.46667 13.2866 4.62 13.06 4.62C12.9533 4.62 12.8733 4.56 12.82 4.44C12.7666 4.30667 12.6933 4.10667 12.6 3.84C12.5066 3.56 12.38 3.30667 12.22 3.08C11.7133 2.32 10.9733 1.74 9.99997 1.34C9.03997 0.939999 8.01997 0.739999 6.93997 0.739999C5.92664 0.739999 5.00664 0.986666 4.17997 1.48C3.69997 1.77333 3.27997 2.15333 2.91997 2.62C2.5733 3.07333 2.27997 3.69333 2.03997 4.48C1.8133 5.26667 1.69997 6.16667 1.69997 7.18C1.69997 9.03333 2.2133 10.6067 3.23997 11.9C4.27997 13.18 5.6333 13.82 7.29997 13.82C7.9133 13.82 8.42664 13.7733 8.83997 13.68C9.2533 13.5867 9.6533 13.4 10.04 13.12C10.8133 12.5333 11.2 11.3133 11.2 9.46V9.34C11.2 8.64667 11.14 8.21333 11.02 8.04C10.9133 7.85333 10.6066 7.76 10.1 7.76H9.91997C9.5333 7.76 9.33997 7.64 9.33997 7.4C9.33997 7.22667 9.55997 7.14 9.99997 7.14L11.84 7.2ZM15.0887 8.44C15.0887 7.93333 15.3087 7.36 15.7487 6.72C16.2021 6.08 16.7354 5.76 17.3487 5.76C17.5621 5.76 17.7287 5.87333 17.8487 6.1C18.0221 6.39333 18.1087 6.80667 18.1087 7.34C18.1087 7.86 17.9821 8.77333 17.7287 10.08C17.4887 11.3733 17.3687 12.18 17.3687 12.5C17.3687 12.82 17.4087 13.0333 17.4887 13.14C17.5687 13.2333 17.6421 13.28 17.7087 13.28C17.7887 13.28 17.8621 13.2733 17.9287 13.26C18.0087 13.2333 18.0887 13.2 18.1687 13.16C18.2487 13.1067 18.3221 13.0533 18.3887 13C18.4554 12.9467 18.5354 12.8733 18.6287 12.78C18.7354 12.6867 18.8154 12.6067 18.8687 12.54C18.9354 12.4733 19.0221 12.38 19.1287 12.26C19.2487 12.1267 19.3421 12.02 19.4087 11.94C19.6087 11.7 19.8087 11.46 20.0087 11.22C20.9554 10.0733 21.7287 8.34667 22.3287 6.04C22.3821 5.82667 22.6021 5.72 22.9887 5.72C23.3754 5.72 23.5687 5.86667 23.5687 6.16C23.5687 6.29333 23.3621 7.3 22.9487 9.18C22.5487 11.06 22.3487 12.1733 22.3487 12.52C22.3487 12.8667 22.4954 13.04 22.7887 13.04C23.3487 13.04 23.8087 12.6667 24.1687 11.92C24.2887 11.68 24.4021 11.56 24.5087 11.56C24.6954 11.56 24.7887 11.72 24.7887 12.04C24.7887 12.36 24.4754 12.8533 23.8487 13.52C23.2221 14.1733 22.4954 14.5 21.6687 14.5C21.2687 14.5 21.0687 14.14 21.0687 13.42C21.0687 12.7533 21.1287 12.0867 21.2487 11.42C21.3687 10.7533 21.4287 10.38 21.4287 10.3C21.4287 10.2067 21.4021 10.16 21.3487 10.16C21.3087 10.16 21.2621 10.2067 21.2087 10.3C21.1554 10.38 21.0687 10.5333 20.9487 10.76C20.8287 10.9733 20.6821 11.2 20.5087 11.44C19.0554 13.5067 17.7754 14.54 16.6687 14.54C16.2154 14.54 15.9887 14.1267 15.9887 13.3C15.9887 12.4733 16.1354 11.4133 16.4287 10.12C16.7354 8.82667 16.8887 8.02667 16.8887 7.72C16.8887 7.41333 16.7554 7.26 16.4887 7.26C16.3954 7.26 16.2554 7.38 16.0687 7.62C15.8821 7.84667 15.7354 8.08667 15.6287 8.34C15.5221 8.58 15.4021 8.7 15.2687 8.7C15.1487 8.7 15.0887 8.61333 15.0887 8.44ZM27.7565 14.56C27.1965 14.56 26.6765 14.46 26.1965 14.26C25.7299 14.0467 25.4965 13.7067 25.4965 13.24C25.4965 12.76 25.7099 12.52 26.1365 12.52C26.3632 12.52 26.5499 12.5933 26.6965 12.74C26.8432 12.8867 26.9499 13.0467 27.0165 13.22C27.0832 13.38 27.2032 13.5333 27.3765 13.68C27.5499 13.8267 27.7832 13.9 28.0765 13.9C28.3832 13.9 28.6565 13.8467 28.8965 13.74C29.1365 13.6333 29.3032 13.5 29.3965 13.34C29.5565 13.06 29.6365 12.8133 29.6365 12.6C29.6365 12.3867 29.6099 12.1933 29.5565 12.02C29.5032 11.8333 29.3765 11.62 29.1765 11.38C28.9899 11.14 28.8632 10.9867 28.7965 10.92C28.3699 10.4933 28.0232 10.1533 27.7565 9.9C27.5032 9.63333 27.3099 9.42 27.1765 9.26C27.0565 9.1 26.9699 8.96 26.9165 8.84C26.7699 8.50667 26.6965 8.17333 26.6965 7.84C26.6965 7.17333 26.9499 6.63333 27.4565 6.22C27.9765 5.79333 28.6299 5.58 29.4165 5.58C30.6565 5.58 31.2765 5.92667 31.2765 6.62C31.2765 6.80667 31.2165 6.96 31.0965 7.08C30.9365 7.22667 30.7365 7.3 30.4965 7.3C30.2699 7.3 30.0165 7.11333 29.7365 6.74C29.4699 6.36667 29.2032 6.18 28.9365 6.18C28.2299 6.18 27.8765 6.53333 27.8765 7.24C27.8765 7.65333 28.2165 8.17333 28.8965 8.8C29.2565 9.13333 29.4499 9.32 29.4765 9.36C29.5165 9.4 29.6299 9.52667 29.8165 9.74C30.0165 9.94 30.1499 10.0933 30.2165 10.2C30.2965 10.2933 30.3965 10.44 30.5165 10.64C30.7299 10.9733 30.8365 11.3267 30.8365 11.7C30.8365 12.0733 30.7899 12.3933 30.6965 12.66C30.6032 12.9267 30.4499 13.2133 30.2365 13.52C30.0365 13.8133 29.7165 14.06 29.2765 14.26C28.8365 14.46 28.3299 14.56 27.7565 14.56ZM36.9767 6.94L35.3567 6.84C35.1834 6.84 35.07 6.86667 35.0167 6.92C34.9634 6.97333 34.9234 7.02 34.8967 7.06C34.87 7.08667 34.85 7.14 34.8367 7.22C34.8234 7.3 34.81 7.36667 34.7967 7.42C34.7834 7.47333 34.77 7.56667 34.7567 7.7C34.7434 7.83333 34.7234 8 34.6967 8.2C34.67 8.4 34.6034 8.84 34.4967 9.52C34.2167 11.16 34.0767 12.0933 34.0767 12.32C34.0767 12.5467 34.1434 12.7533 34.2767 12.94C34.4234 13.1133 34.5434 13.2133 34.6367 13.24C34.73 13.2667 34.8767 13.28 35.0767 13.28C35.2767 13.28 35.51 13.2067 35.7767 13.06C36.0434 12.9133 36.2567 12.7667 36.4167 12.62C36.5767 12.4733 36.6967 12.4 36.7767 12.4C36.9234 12.4 36.9967 12.4933 36.9967 12.68C36.9967 12.9733 36.65 13.36 35.9567 13.84C35.2634 14.32 34.63 14.56 34.0567 14.56C33.71 14.56 33.41 14.42 33.1567 14.14C32.9034 13.86 32.7767 13.3667 32.7767 12.66C32.7767 11.9533 32.9167 10.86 33.1967 9.38C33.4767 7.9 33.6167 7.12667 33.6167 7.06C33.6167 6.92667 33.4167 6.85333 33.0167 6.84C32.63 6.82667 32.4367 6.72 32.4367 6.52C32.4367 6.41333 32.5034 6.32 32.6367 6.24C32.7834 6.14667 32.9967 6.02 33.2767 5.86C33.57 5.68667 33.8167 5.49333 34.0167 5.28C34.2167 5.06667 34.39 4.87333 34.5367 4.7C34.6834 4.52667 34.79 4.40667 34.8567 4.34C34.9767 4.19333 35.1034 4.12 35.2367 4.12C35.37 4.12 35.4367 4.2 35.4367 4.36C35.4367 4.44 35.3767 4.68667 35.2567 5.1C35.1367 5.5 35.0767 5.74667 35.0767 5.84C35.0767 5.92 35.11 5.96667 35.1767 5.98C35.2567 5.99333 35.4567 6 35.7767 6L36.9367 5.98C37.2834 5.98 37.4567 6.1 37.4567 6.34C37.4567 6.58 37.4234 6.74 37.3567 6.82C37.29 6.9 37.1634 6.94 36.9767 6.94ZM41.2998 14.52C40.3931 14.52 39.6465 14.2133 39.0598 13.6C38.4865 12.9867 38.1998 12.0533 38.1998 10.8C38.1998 9.53333 38.6265 8.35333 39.4798 7.26C40.3465 6.16667 41.4931 5.62 42.9198 5.62C43.8665 5.62 44.5865 5.96 45.0798 6.64C45.5865 7.30667 45.8398 8.11333 45.8398 9.06C45.8398 9.99333 45.6665 10.86 45.3198 11.66C44.9865 12.46 44.4598 13.14 43.7398 13.7C43.0198 14.2467 42.2065 14.52 41.2998 14.52ZM42.6198 6.22C42.1265 6.22 41.6465 6.44667 41.1798 6.9C40.7131 7.34 40.3531 7.98667 40.0998 8.84C39.8598 9.69333 39.7398 10.5 39.7398 11.26C39.7398 12.02 39.8998 12.6533 40.2198 13.16C40.5531 13.6667 40.9731 13.92 41.4798 13.92C41.9865 13.92 42.4331 13.74 42.8198 13.38C43.2198 13.02 43.5198 12.5733 43.7198 12.04C44.1465 10.9333 44.3598 9.91333 44.3598 8.98C44.3598 8.04667 44.1931 7.35333 43.8598 6.9C43.5398 6.44667 43.1265 6.22 42.6198 6.22Z" fill="#0F110C"/>
</svg>
